<svg xmlns="http://www.w3.org/2000/svg" version="1.1" xmlns:xlink="http://www.w3.org/1999/xlink" width="159" height="159"><svg xmlns="http://www.w3.org/2000/svg" version="1.1" xmlns:xlink="http://www.w3.org/1999/xlink" width="159" height="159"><svg width="159" height="159" viewBox="0 0 159 159" fill="none" xmlns="http://www.w3.org/2000/svg">
<g clip-path="url(#clip0_11885_1677)">
<path fill-rule="evenodd" clip-rule="evenodd" d="M136.788 34.9263C137.998 34.9263 139.006 36.0016 138.904 37.1873C137.983 47.5717 134.193 90.3237 133.964 92.9161C133.146 102.129 130.567 110.893 126.573 118.928C116.948 138.341 99.0135 152.666 78.0163 158.683C77.8355 158.734 77.6519 158.756 77.4739 158.756C76.3094 158.756 75.2383 157.725 75.3512 156.495L77.4703 132.597C77.588 131.338 78.3417 130.307 79.4488 129.747C90.8981 123.966 100.358 112.499 99.1 98.3954C99.0264 97.5707 98.9302 96.7384 98.7819 95.9063L88.9908 95.9063C88.9905 95.9085 88.9903 95.9108 88.99 95.913L80.2667 95.913C73.0121 95.913 66.9363 89.4175 67.5573 82.3253L68.3513 73.2593L68.5893 70.689L69.1303 64.532L69.4418 61.0336C69.4633 60.7759 69.4919 60.5182 69.5209 60.2605L69.5286 60.2605C70.2506 54.1333 73.0328 48.5658 77.1472 44.2133C79.5419 41.6209 82.4158 39.4923 85.5904 37.9089C89.0344 36.1856 95.2048 34.9263 99.1954 34.9263L136.788 34.9263Z" fill="#FF691D"></path>
<path fill-rule="evenodd" clip-rule="evenodd" d="M21.9674 123.83C20.7583 123.83 19.7499 122.754 19.8518 121.569C20.7728 111.184 24.5634 68.4324 24.7921 65.84C25.6098 56.6268 28.1888 47.863 32.1825 39.8282C41.8078 20.4148 59.7424 6.09046 80.7396 0.0734983C80.9204 0.0219639 81.1039 -1.54497e-08 81.2819 0C82.4465 5.15314e-05 83.5176 1.03116 83.4047 2.26103L81.2855 26.1593C81.1679 27.4186 80.4142 28.4495 79.3071 29.0092C67.8578 34.7905 58.3982 46.2573 59.6559 60.3607C59.7294 61.1854 59.8256 62.0177 59.974 62.8498H69.7651C69.7654 62.8476 69.7656 62.8453 69.7659 62.8431H78.4892C85.7437 62.8431 91.8196 69.3386 91.1985 76.4308L90.4045 85.4968L90.1666 88.0671L89.6255 94.2241L89.3141 97.7225C89.2926 97.9802 89.2639 98.2379 89.235 98.4956H89.2273C88.5052 104.623 85.723 110.19 81.6087 114.543C79.214 117.135 76.34 119.264 73.1655 120.847C69.7215 122.571 63.5511 123.83 59.5604 123.83L21.9674 123.83Z" fill="#721AEA"></path>
<path d="M78.5345 62.7279C85.7889 62.728 91.8647 69.2239 91.2437 76.316L90.4496 85.3817L90.2118 87.9521L89.5207 95.7915H89.0365C89.0362 95.7936 89.0361 95.7957 89.0358 95.7977H80.3125C73.058 95.7977 66.9824 89.3025 67.6033 82.2104L68.3974 73.144L68.6352 70.5742L69.176 64.417L69.3255 62.7349H69.8105C69.8108 62.7327 69.8109 62.7301 69.8112 62.7279H78.5345Z" fill="#480E98"></path>
</g>
<defs>
<clipPath id="clip0_11885_1677">
<rect width="158.756" height="158.756" fill="white"></rect>
</clipPath>
</defs>
</svg></svg><style>@media (prefers-color-scheme: light) { :root { filter: none; } }
@media (prefers-color-scheme: dark) { :root { filter: none; } }
</style></svg>